<svg width="2072" height="447" viewBox="0 0 2072 447" fill="none" xmlns="http://www.w3.org/2000/svg">
<rect width="2072" height="447" rx="67" fill="url(#paint0_linear_213_315)"/>
<path d="M1691.78 196.531C1696.66 196.531 1700.49 197.708 1703.28 200.062C1706.09 202.417 1707.5 205.656 1707.5 209.781C1707.5 214.469 1706.04 218.115 1703.12 220.719C1700.21 223.323 1696.19 224.625 1691.06 224.625C1688.79 224.625 1686.64 224.406 1684.59 223.969C1682.55 223.51 1680.84 222.865 1679.47 222.031V218.812C1681.72 219.958 1683.72 220.76 1685.47 221.219C1687.22 221.656 1689.08 221.875 1691.06 221.875C1695.06 221.875 1698.27 220.823 1700.69 218.719C1703.1 216.594 1704.31 213.729 1704.31 210.125C1704.31 206.729 1703.14 204.062 1700.78 202.125C1698.43 200.188 1695.23 199.219 1691.19 199.219C1688.48 199.219 1685.65 199.625 1682.69 200.438L1680.81 199.219L1682.62 178.312H1704.62V181.312H1685.56L1684.16 197.438C1687.41 196.833 1689.95 196.531 1691.78 196.531ZM1744.53 201.031C1744.53 209.052 1743.3 214.99 1740.84 218.844C1738.41 222.698 1734.71 224.625 1729.75 224.625C1724.98 224.625 1721.35 222.646 1718.88 218.688C1716.4 214.708 1715.16 208.823 1715.16 201.031C1715.16 193.073 1716.35 187.177 1718.75 183.344C1721.17 179.51 1724.83 177.594 1729.75 177.594C1734.56 177.594 1738.23 179.583 1740.75 183.562C1743.27 187.521 1744.53 193.344 1744.53 201.031ZM1718.53 201.031C1718.53 208.115 1719.46 213.354 1721.31 216.75C1723.17 220.125 1725.98 221.812 1729.75 221.812C1733.69 221.812 1736.55 220.062 1738.34 216.562C1740.16 213.062 1741.06 207.885 1741.06 201.031C1741.06 194.281 1740.16 189.156 1738.34 185.656C1736.55 182.156 1733.69 180.406 1729.75 180.406C1725.81 180.406 1722.96 182.156 1721.19 185.656C1719.42 189.156 1718.53 194.281 1718.53 201.031ZM1780.25 224H1751.66V221.25L1763.81 208.562C1767.23 205.021 1769.62 202.312 1771 200.438C1772.38 198.562 1773.39 196.771 1774.03 195.062C1774.68 193.354 1775 191.562 1775 189.688C1775 186.958 1774.1 184.74 1772.31 183.031C1770.52 181.323 1768.2 180.469 1765.34 180.469C1761.53 180.469 1757.89 181.854 1754.41 184.625L1752.72 182.469C1756.53 179.26 1760.76 177.656 1765.41 177.656C1769.39 177.656 1772.51 178.719 1774.78 180.844C1777.07 182.969 1778.22 185.896 1778.22 189.625C1778.22 192.646 1777.45 195.573 1775.91 198.406C1774.39 201.219 1771.59 204.698 1767.53 208.844L1755.81 220.875V221H1780.25V224ZM1793.91 216.562L1794.28 217.219C1792.72 222.74 1790.91 227.75 1788.84 232.25H1786.81C1788.42 226.521 1789.56 221.292 1790.25 216.562H1793.91ZM1830.56 224H1801.97V221.25L1814.12 208.562C1817.54 205.021 1819.94 202.312 1821.31 200.438C1822.69 198.562 1823.7 196.771 1824.34 195.062C1824.99 193.354 1825.31 191.562 1825.31 189.688C1825.31 186.958 1824.42 184.74 1822.62 183.031C1820.83 181.323 1818.51 180.469 1815.66 180.469C1811.84 180.469 1808.2 181.854 1804.72 184.625L1803.03 182.469C1806.84 179.26 1811.07 177.656 1815.72 177.656C1819.7 177.656 1822.82 178.719 1825.09 180.844C1827.39 182.969 1828.53 185.896 1828.53 189.625C1828.53 192.646 1827.76 195.573 1826.22 198.406C1824.7 201.219 1821.91 204.698 1817.84 208.844L1806.12 220.875V221H1830.56V224ZM1851.78 196.531C1856.66 196.531 1860.49 197.708 1863.28 200.062C1866.09 202.417 1867.5 205.656 1867.5 209.781C1867.5 214.469 1866.04 218.115 1863.12 220.719C1860.21 223.323 1856.19 224.625 1851.06 224.625C1848.79 224.625 1846.64 224.406 1844.59 223.969C1842.55 223.51 1840.84 222.865 1839.47 222.031V218.812C1841.72 219.958 1843.72 220.76 1845.47 221.219C1847.22 221.656 1849.08 221.875 1851.06 221.875C1855.06 221.875 1858.27 220.823 1860.69 218.719C1863.1 216.594 1864.31 213.729 1864.31 210.125C1864.31 206.729 1863.14 204.062 1860.78 202.125C1858.43 200.188 1855.23 199.219 1851.19 199.219C1848.48 199.219 1845.65 199.625 1842.69 200.438L1840.81 199.219L1842.62 178.312H1864.62V181.312H1845.56L1844.16 197.438C1847.41 196.833 1849.95 196.531 1851.78 196.531ZM1882 224L1900.81 181.312H1874.97V178.312H1904.53V180.594L1885.66 224H1882ZM1712.19 299H1708.28L1690.75 274.875L1684.66 280.25V299H1681.47V253.312H1684.66V277.062L1689.72 272L1707.62 253.312H1711.69L1692.97 272.625L1712.19 299ZM1758.19 299V276.969C1758.19 273.552 1757.47 271.073 1756.03 269.531C1754.59 267.969 1752.36 267.188 1749.34 267.188C1745.28 267.188 1742.3 268.219 1740.41 270.281C1738.53 272.323 1737.59 275.646 1737.59 280.25V299H1734.5V250.375H1737.59V265.844L1737.44 270.188H1737.66C1738.93 268.146 1740.53 266.667 1742.47 265.75C1744.41 264.833 1746.81 264.375 1749.69 264.375C1757.4 264.375 1761.25 268.51 1761.25 276.781V299H1758.19ZM1800.34 281.969C1800.34 287.51 1799 291.844 1796.31 294.969C1793.62 298.073 1789.92 299.625 1785.19 299.625C1782.21 299.625 1779.58 298.906 1777.31 297.469C1775.04 296.031 1773.3 293.969 1772.09 291.281C1770.89 288.594 1770.28 285.49 1770.28 281.969C1770.28 276.427 1771.62 272.115 1774.31 269.031C1777 265.927 1780.69 264.375 1785.38 264.375C1790.04 264.375 1793.7 265.948 1796.34 269.094C1799.01 272.219 1800.34 276.51 1800.34 281.969ZM1773.53 281.969C1773.53 286.635 1774.55 290.281 1776.59 292.906C1778.66 295.51 1781.56 296.812 1785.31 296.812C1789.06 296.812 1791.96 295.51 1794 292.906C1796.06 290.281 1797.09 286.635 1797.09 281.969C1797.09 277.281 1796.05 273.646 1793.97 271.062C1791.91 268.479 1789 267.188 1785.25 267.188C1781.5 267.188 1778.6 268.479 1776.56 271.062C1774.54 273.625 1773.53 277.26 1773.53 281.969ZM1804.06 265.031H1807.25L1814.44 284.094C1816.62 289.948 1818.01 293.896 1818.59 295.938H1818.78C1819.66 293.25 1821.08 289.24 1823.06 283.906L1830.25 265.031H1833.44L1818.22 304.5C1816.99 307.708 1815.96 309.875 1815.12 311C1814.29 312.125 1813.31 312.969 1812.19 313.531C1811.08 314.094 1809.74 314.375 1808.16 314.375C1806.97 314.375 1805.65 314.156 1804.19 313.719V311.031C1805.4 311.365 1806.7 311.531 1808.09 311.531C1809.16 311.531 1810.09 311.281 1810.91 310.781C1811.72 310.281 1812.45 309.5 1813.09 308.438C1813.76 307.396 1814.52 305.729 1815.38 303.438C1816.25 301.167 1816.81 299.688 1817.06 299L1804.06 265.031Z" fill="white"/>
<path d="M1534.35 217.783C1534.99 217.783 1535.6 217.558 1536.08 217.146L1554.49 201.413C1555.01 200.965 1555.32 200.309 1555.32 199.617C1555.32 198.924 1555.01 198.269 1554.49 197.818L1536.08 182.086C1535.6 181.675 1534.99 181.45 1534.35 181.45C1532.89 181.45 1531.7 182.638 1531.7 184.104V187.672C1516.82 194.185 1506.27 210.726 1506.27 229.592C1506.27 251.911 1521.23 272.997 1546 274.098C1546.02 274.1 1546.04 274.1 1546.06 274.1C1547.15 274.1 1548.05 273.203 1548.05 272.098C1548.05 271.242 1547.49 270.499 1546.69 270.218C1532.66 265.322 1522.62 252.224 1522.62 236.858C1522.62 227.317 1525.57 218.684 1531.7 212.315V215.129C1531.7 216.595 1532.89 217.783 1534.35 217.783Z" fill="white"/>
<path d="M1600.73 231.408C1600.73 209.087 1585.77 188.003 1561 186.902C1560.98 186.9 1560.96 186.9 1560.94 186.9C1559.85 186.9 1558.95 187.797 1558.95 188.902C1558.95 189.759 1559.51 190.501 1560.32 190.782C1574.34 195.678 1584.38 208.776 1584.38 224.142C1584.38 233.683 1581.42 242.316 1575.3 248.685V245.871C1575.3 244.405 1574.11 243.217 1572.65 243.217C1572.01 243.217 1571.4 243.442 1570.92 243.853L1552.51 259.585C1551.99 260.035 1551.68 260.691 1551.68 261.383C1551.68 262.076 1551.99 262.731 1552.51 263.182L1570.92 278.914C1571.4 279.325 1572.01 279.55 1572.65 279.55C1574.11 279.55 1575.3 278.362 1575.3 276.896V273.328C1590.18 266.815 1600.73 250.274 1600.73 231.408Z" fill="white"/>
<path d="M1576.58 221.949L1562.05 207.416C1561.72 207.087 1561.27 206.883 1560.77 206.883C1560.27 206.883 1559.81 207.087 1559.48 207.416L1530.42 236.482C1530.09 236.811 1529.88 237.265 1529.88 237.767C1529.88 238.268 1530.09 238.722 1530.42 239.051L1544.95 253.584C1545.28 253.913 1545.73 254.117 1546.23 254.117C1546.73 254.117 1547.19 253.913 1547.52 253.584L1576.58 224.518C1576.91 224.189 1577.12 223.735 1577.12 223.233C1577.12 222.732 1576.91 222.278 1576.58 221.949ZM1553.5 235.95C1550.49 235.95 1548.05 233.51 1548.05 230.5C1548.05 227.49 1550.49 225.05 1553.5 225.05C1556.51 225.05 1558.95 227.49 1558.95 230.5C1558.95 233.51 1556.51 235.95 1553.5 235.95Z" fill="white"/>
<path d="M826.55 267.6C824.202 267.6 822.3 269.502 822.3 271.85C822.3 277.766 834.134 282.9 837.6 282.9C839.477 282.9 841 281.377 841 279.5C841 276.141 834.232 267.6 826.55 267.6Z" fill="white"/>
<path d="M872.504 247.2C866.991 247.2 865.002 242.1 853.801 242.1C848.502 242.1 843.851 243.474 839.771 245.962L834.056 249.451C833.121 250.058 832.5 251.103 832.5 252.3C832.5 254.177 834.023 255.7 835.9 255.7C836.311 255.7 836.701 255.615 837.066 255.482L846.557 252.009L860.698 267.095C862.247 268.746 863.1 270.901 863.1 273.166C863.1 273.876 863.01 274.573 862.848 275.247C862.848 275.247 869.592 271.165 871.646 269.327C874.459 266.811 877.676 264.776 881.164 263.313L886.9 260.907V240.4C876.656 246.253 875.734 247.2 872.504 247.2Z" fill="white"/>
<path d="M858.218 269.419L845.614 255.974L838.234 258.675C837.457 258.957 836.674 259.1 835.9 259.1C832.15 259.1 829.1 256.05 829.1 252.3C829.1 249.993 830.261 247.861 832.203 246.598L833.542 245.782C830.632 244.494 827.46 243.8 824.211 243.8C819.862 243.8 814.337 245.5 810.4 245.5C805.849 245.5 804.035 244.23 795.1 240.4V260.8L801.189 262.017C802.765 262.333 804.224 263.078 805.404 264.168C812.063 270.327 810.762 269.456 819.084 273.518C818.97 272.974 818.9 272.42 818.9 271.85C818.9 267.632 822.332 264.2 826.55 264.2C836.022 264.2 844.4 274.052 844.4 279.5C844.4 280.739 844.043 281.887 843.46 282.888C850.342 282.786 854.365 279.656 857.259 277.727C858.784 276.71 859.7 275 859.7 273.168C859.7 271.775 859.17 270.434 858.218 269.419Z" fill="white"/>
<path d="M868.154 242.296C870.063 243.283 871.124 243.8 872.503 243.8C874.101 243.8 874.582 243.598 880.1 240.398V196.2C880.1 194.323 878.577 192.8 876.7 192.8H859.7C857.823 192.8 856.3 194.323 856.3 196.2V238.788C862.145 239.191 865.574 240.959 868.154 242.296Z" fill="white"/>
<path d="M837.073 243.625C841.944 240.653 846.549 238.901 852.9 238.729V206.4C852.9 204.523 851.377 203 849.5 203H832.5C830.623 203 829.1 204.523 829.1 206.4V240.881C832.604 241.544 834.538 242.505 837.073 243.625Z" fill="white"/>
<path d="M810.4 242.1C814.47 242.1 819.687 240.138 825.7 240.477V218.3C825.7 216.423 824.177 214.9 822.3 214.9H805.3C803.423 214.9 801.9 216.423 801.9 218.3V239.661C806.211 241.554 807.648 242.1 810.4 242.1Z" fill="white"/>
<path d="M944.781 196.531C949.656 196.531 953.49 197.708 956.281 200.062C959.094 202.417 960.5 205.656 960.5 209.781C960.5 214.469 959.042 218.115 956.125 220.719C953.208 223.323 949.188 224.625 944.062 224.625C941.792 224.625 939.635 224.406 937.594 223.969C935.552 223.51 933.844 222.865 932.469 222.031V218.812C934.719 219.958 936.719 220.76 938.469 221.219C940.219 221.656 942.083 221.875 944.062 221.875C948.062 221.875 951.271 220.823 953.688 218.719C956.104 216.594 957.312 213.729 957.312 210.125C957.312 206.729 956.135 204.062 953.781 202.125C951.427 200.188 948.229 199.219 944.188 199.219C941.479 199.219 938.646 199.625 935.688 200.438L933.812 199.219L935.625 178.312H957.625V181.312H938.562L937.156 197.438C940.406 196.833 942.948 196.531 944.781 196.531ZM1000.22 212.344H992.344V224H989.406V212.344H965.906V210.25L988.562 178.062H992.344V209.656H1000.22V212.344ZM989.406 209.656V196.594C989.406 190.302 989.552 185.021 989.844 180.75H989.594C989.177 181.521 987.896 183.479 985.75 186.625L969.625 209.656H989.406ZM1006.19 221.562C1006.19 219.521 1007.02 218.5 1008.69 218.5C1010.4 218.5 1011.25 219.521 1011.25 221.562C1011.25 223.604 1010.4 224.625 1008.69 224.625C1007.02 224.625 1006.19 223.604 1006.19 221.562ZM1020.47 204.531C1020.47 198.594 1021.27 193.604 1022.88 189.562C1024.5 185.5 1026.79 182.49 1029.75 180.531C1032.73 178.573 1036.31 177.594 1040.5 177.594C1042.46 177.594 1044.25 177.833 1045.88 178.312V181.062C1044.35 180.5 1042.52 180.219 1040.38 180.219C1035.23 180.219 1031.22 182.073 1028.34 185.781C1025.49 189.49 1023.89 194.885 1023.53 201.969H1023.94C1025.52 199.927 1027.33 198.385 1029.38 197.344C1031.42 196.302 1033.57 195.781 1035.84 195.781C1040.11 195.781 1043.45 197 1045.84 199.438C1048.26 201.875 1049.47 205.24 1049.47 209.531C1049.47 214.198 1048.2 217.885 1045.66 220.594C1043.14 223.281 1039.73 224.625 1035.44 224.625C1030.81 224.625 1027.16 222.865 1024.47 219.344C1021.8 215.802 1020.47 210.865 1020.47 204.531ZM1035.44 221.875C1038.85 221.875 1041.51 220.802 1043.41 218.656C1045.3 216.51 1046.25 213.448 1046.25 209.469C1046.25 205.969 1045.31 203.24 1043.44 201.281C1041.56 199.323 1039.01 198.344 1035.78 198.344C1033.66 198.344 1031.68 198.812 1029.84 199.75C1028.03 200.688 1026.58 201.938 1025.5 203.5C1024.42 205.042 1023.88 206.625 1023.88 208.25C1023.88 210.562 1024.39 212.792 1025.41 214.938C1026.45 217.062 1027.84 218.75 1029.59 220C1031.36 221.25 1033.31 221.875 1035.44 221.875ZM1069.72 196.531C1074.59 196.531 1078.43 197.708 1081.22 200.062C1084.03 202.417 1085.44 205.656 1085.44 209.781C1085.44 214.469 1083.98 218.115 1081.06 220.719C1078.15 223.323 1074.12 224.625 1069 224.625C1066.73 224.625 1064.57 224.406 1062.53 223.969C1060.49 223.51 1058.78 222.865 1057.41 222.031V218.812C1059.66 219.958 1061.66 220.76 1063.41 221.219C1065.16 221.656 1067.02 221.875 1069 221.875C1073 221.875 1076.21 220.823 1078.62 218.719C1081.04 216.594 1082.25 213.729 1082.25 210.125C1082.25 206.729 1081.07 204.062 1078.72 202.125C1076.36 200.188 1073.17 199.219 1069.12 199.219C1066.42 199.219 1063.58 199.625 1060.62 200.438L1058.75 199.219L1060.56 178.312H1082.56V181.312H1063.5L1062.09 197.438C1065.34 196.833 1067.89 196.531 1069.72 196.531ZM1120.09 189.062C1120.09 191.896 1119.2 194.281 1117.41 196.219C1115.64 198.156 1113.25 199.396 1110.25 199.938V200.125C1113.92 200.583 1116.71 201.75 1118.62 203.625C1120.54 205.5 1121.5 208.021 1121.5 211.188C1121.5 215.458 1120.04 218.771 1117.12 221.125C1114.23 223.458 1110.05 224.625 1104.59 224.625C1099.95 224.625 1095.9 223.76 1092.44 222.031V218.938C1094.19 219.854 1096.15 220.573 1098.31 221.094C1100.5 221.615 1102.55 221.875 1104.47 221.875C1109.07 221.875 1112.53 220.948 1114.84 219.094C1117.16 217.219 1118.31 214.583 1118.31 211.188C1118.31 208.167 1117.12 205.844 1114.75 204.219C1112.4 202.594 1108.93 201.781 1104.34 201.781H1099.41V198.781H1104.41C1108.2 198.781 1111.2 197.885 1113.41 196.094C1115.64 194.281 1116.75 191.833 1116.75 188.75C1116.75 186.208 1115.84 184.177 1114.03 182.656C1112.24 181.115 1109.89 180.344 1106.97 180.344C1104.7 180.344 1102.62 180.667 1100.75 181.312C1098.88 181.938 1096.77 183.021 1094.44 184.562L1092.91 182.469C1094.68 180.99 1096.81 179.823 1099.31 178.969C1101.81 178.094 1104.34 177.656 1106.91 177.656C1111.11 177.656 1114.36 178.656 1116.66 180.656C1118.95 182.635 1120.09 185.438 1120.09 189.062ZM941.125 299L928 265.031H931.188L939.969 288.125C941.135 291.083 942.01 293.667 942.594 295.875H942.781C943.635 293.042 944.51 290.438 945.406 288.062L954.188 265.031H957.375L944.25 299H941.125ZM976.781 299.625C971.844 299.625 967.99 298.104 965.219 295.062C962.469 292.021 961.094 287.76 961.094 282.281C961.094 276.865 962.427 272.531 965.094 269.281C967.76 266.01 971.354 264.375 975.875 264.375C979.875 264.375 983.031 265.771 985.344 268.562C987.656 271.354 988.812 275.146 988.812 279.938V282.438H964.344C964.385 287.104 965.469 290.667 967.594 293.125C969.74 295.583 972.802 296.812 976.781 296.812C978.719 296.812 980.417 296.677 981.875 296.406C983.354 296.135 985.219 295.552 987.469 294.656V297.469C985.552 298.302 983.781 298.865 982.156 299.156C980.531 299.469 978.74 299.625 976.781 299.625ZM975.875 267.125C972.604 267.125 969.979 268.208 968 270.375C966.021 272.521 964.865 275.625 964.531 279.688H985.531C985.531 275.75 984.677 272.677 982.969 270.469C981.26 268.24 978.896 267.125 975.875 267.125ZM1021.88 299V276.969C1021.88 273.552 1021.16 271.073 1019.72 269.531C1018.28 267.969 1016.05 267.188 1013.03 267.188C1008.97 267.188 1005.99 268.219 1004.09 270.281C1002.22 272.323 1001.28 275.646 1001.28 280.25V299H998.188V265.031H1000.81L1001.41 269.688H1001.59C1003.8 266.146 1007.73 264.375 1013.38 264.375C1021.08 264.375 1024.94 268.51 1024.94 276.781V299H1021.88ZM1044.91 296.875C1046.86 296.875 1048.57 296.708 1050.03 296.375V298.875C1048.53 299.375 1046.8 299.625 1044.84 299.625C1041.84 299.625 1039.62 298.823 1038.19 297.219C1036.77 295.615 1036.06 293.094 1036.06 289.656V267.719H1031.03V265.906L1036.06 264.5L1037.62 256.812H1039.22V265.031H1049.19V267.719H1039.22V289.219C1039.22 291.823 1039.68 293.75 1040.59 295C1041.51 296.25 1042.95 296.875 1044.91 296.875ZM1078 299L1077.22 293.625H1076.97C1075.26 295.812 1073.5 297.365 1071.69 298.281C1069.9 299.177 1067.77 299.625 1065.31 299.625C1061.98 299.625 1059.39 298.771 1057.53 297.062C1055.68 295.354 1054.75 292.99 1054.75 289.969C1054.75 286.656 1056.12 284.083 1058.88 282.25C1061.65 280.417 1065.65 279.448 1070.88 279.344L1077.34 279.156V276.906C1077.34 273.677 1076.69 271.24 1075.38 269.594C1074.06 267.948 1071.95 267.125 1069.03 267.125C1065.89 267.125 1062.62 268 1059.25 269.75L1058.09 267.062C1061.82 265.312 1065.51 264.438 1069.16 264.438C1072.89 264.438 1075.67 265.406 1077.5 267.344C1079.35 269.281 1080.28 272.302 1080.28 276.406V299H1078ZM1065.5 296.812C1069.12 296.812 1071.98 295.781 1074.06 293.719C1076.17 291.635 1077.22 288.75 1077.22 285.062V281.719L1071.28 281.969C1066.51 282.198 1063.1 282.948 1061.06 284.219C1059.04 285.469 1058.03 287.427 1058.03 290.094C1058.03 292.219 1058.68 293.875 1059.97 295.062C1061.28 296.229 1063.12 296.812 1065.5 296.812ZM1112.38 290.156C1112.38 293.198 1111.22 295.542 1108.91 297.188C1106.59 298.812 1103.31 299.625 1099.06 299.625C1094.52 299.625 1090.92 298.927 1088.25 297.531V294.188C1091.67 295.896 1095.27 296.75 1099.06 296.75C1102.42 296.75 1104.96 296.198 1106.69 295.094C1108.44 293.969 1109.31 292.479 1109.31 290.625C1109.31 288.917 1108.61 287.479 1107.22 286.312C1105.84 285.146 1103.57 284 1100.41 282.875C1097.01 281.646 1094.62 280.594 1093.25 279.719C1091.88 278.823 1090.83 277.823 1090.12 276.719C1089.44 275.594 1089.09 274.229 1089.09 272.625C1089.09 270.083 1090.16 268.073 1092.28 266.594C1094.43 265.115 1097.42 264.375 1101.25 264.375C1104.92 264.375 1108.4 265.062 1111.69 266.438L1110.53 269.25C1107.2 267.875 1104.1 267.188 1101.25 267.188C1098.48 267.188 1096.28 267.646 1094.66 268.562C1093.03 269.479 1092.22 270.75 1092.22 272.375C1092.22 274.146 1092.84 275.562 1094.09 276.625C1095.36 277.688 1097.83 278.875 1101.5 280.188C1104.56 281.292 1106.79 282.292 1108.19 283.188C1109.58 284.062 1110.62 285.062 1111.31 286.188C1112.02 287.312 1112.38 288.635 1112.38 290.156ZM1161.44 299V276.969C1161.44 273.552 1160.72 271.073 1159.28 269.531C1157.84 267.969 1155.61 267.188 1152.59 267.188C1148.53 267.188 1145.55 268.219 1143.66 270.281C1141.78 272.323 1140.84 275.646 1140.84 280.25V299H1137.75V250.375H1140.84V265.844L1140.69 270.188H1140.91C1142.18 268.146 1143.78 266.667 1145.72 265.75C1147.66 264.833 1150.06 264.375 1152.94 264.375C1160.65 264.375 1164.5 268.51 1164.5 276.781V299H1161.44ZM1203.59 281.969C1203.59 287.51 1202.25 291.844 1199.56 294.969C1196.88 298.073 1193.17 299.625 1188.44 299.625C1185.46 299.625 1182.83 298.906 1180.56 297.469C1178.29 296.031 1176.55 293.969 1175.34 291.281C1174.14 288.594 1173.53 285.49 1173.53 281.969C1173.53 276.427 1174.88 272.115 1177.56 269.031C1180.25 265.927 1183.94 264.375 1188.62 264.375C1193.29 264.375 1196.95 265.948 1199.59 269.094C1202.26 272.219 1203.59 276.51 1203.59 281.969ZM1176.78 281.969C1176.78 286.635 1177.8 290.281 1179.84 292.906C1181.91 295.51 1184.81 296.812 1188.56 296.812C1192.31 296.812 1195.21 295.51 1197.25 292.906C1199.31 290.281 1200.34 286.635 1200.34 281.969C1200.34 277.281 1199.3 273.646 1197.22 271.062C1195.16 268.479 1192.25 267.188 1188.5 267.188C1184.75 267.188 1181.85 268.479 1179.81 271.062C1177.79 273.625 1176.78 277.26 1176.78 281.969ZM1207.31 265.031H1210.5L1217.69 284.094C1219.88 289.948 1221.26 293.896 1221.84 295.938H1222.03C1222.91 293.25 1224.33 289.24 1226.31 283.906L1233.5 265.031H1236.69L1221.47 304.5C1220.24 307.708 1219.21 309.875 1218.38 311C1217.54 312.125 1216.56 312.969 1215.44 313.531C1214.33 314.094 1212.99 314.375 1211.41 314.375C1210.22 314.375 1208.9 314.156 1207.44 313.719V311.031C1208.65 311.365 1209.95 311.531 1211.34 311.531C1212.41 311.531 1213.34 311.281 1214.16 310.781C1214.97 310.281 1215.7 309.5 1216.34 308.438C1217.01 307.396 1217.77 305.729 1218.62 303.438C1219.5 301.167 1220.06 299.688 1220.31 299L1207.31 265.031Z" fill="white"/>
<path d="M254.188 177.531C258.062 177.531 261.177 178.521 263.531 180.5C265.906 182.479 267.094 185.156 267.094 188.531C267.094 190.865 266.354 192.927 264.875 194.719C263.417 196.51 261.042 198.167 257.75 199.688C261.75 201.333 264.562 203.135 266.188 205.094C267.812 207.052 268.625 209.427 268.625 212.219C268.625 215.99 267.302 219 264.656 221.25C262.031 223.5 258.5 224.625 254.062 224.625C249.458 224.625 245.927 223.573 243.469 221.469C241.01 219.365 239.781 216.302 239.781 212.281C239.781 209.552 240.646 207.156 242.375 205.094C244.104 203.031 246.781 201.271 250.406 199.812C247.052 198.229 244.688 196.562 243.312 194.812C241.938 193.042 241.25 190.927 241.25 188.469C241.25 186.281 241.802 184.365 242.906 182.719C244.01 181.052 245.552 179.771 247.531 178.875C249.531 177.979 251.75 177.531 254.188 177.531ZM242.969 212.75C242.969 215.625 243.938 217.854 245.875 219.438C247.833 221.021 250.562 221.812 254.062 221.812C257.479 221.812 260.229 220.979 262.312 219.312C264.396 217.625 265.438 215.344 265.438 212.469C265.438 209.885 264.615 207.792 262.969 206.188C261.344 204.562 258.198 202.865 253.531 201.094C249.698 202.573 246.979 204.208 245.375 206C243.771 207.792 242.969 210.042 242.969 212.75ZM254.125 180.344C251.188 180.344 248.823 181.073 247.031 182.531C245.26 183.969 244.375 185.948 244.375 188.469C244.375 189.927 244.698 191.219 245.344 192.344C246.01 193.448 246.958 194.458 248.188 195.375C249.438 196.271 251.521 197.323 254.438 198.531C257.833 197.219 260.271 195.771 261.75 194.188C263.229 192.604 263.969 190.698 263.969 188.469C263.969 185.969 263.083 183.99 261.312 182.531C259.562 181.073 257.167 180.344 254.125 180.344ZM303.156 189.062C303.156 191.896 302.26 194.281 300.469 196.219C298.698 198.156 296.312 199.396 293.312 199.938V200.125C296.979 200.583 299.771 201.75 301.688 203.625C303.604 205.5 304.562 208.021 304.562 211.188C304.562 215.458 303.104 218.771 300.188 221.125C297.292 223.458 293.115 224.625 287.656 224.625C283.01 224.625 278.958 223.76 275.5 222.031V218.938C277.25 219.854 279.208 220.573 281.375 221.094C283.562 221.615 285.615 221.875 287.531 221.875C292.135 221.875 295.594 220.948 297.906 219.094C300.219 217.219 301.375 214.583 301.375 211.188C301.375 208.167 300.188 205.844 297.812 204.219C295.458 202.594 291.99 201.781 287.406 201.781H282.469V198.781H287.469C291.26 198.781 294.26 197.885 296.469 196.094C298.698 194.281 299.812 191.833 299.812 188.75C299.812 186.208 298.906 184.177 297.094 182.656C295.302 181.115 292.948 180.344 290.031 180.344C287.76 180.344 285.688 180.667 283.812 181.312C281.938 181.938 279.833 183.021 277.5 184.562L275.969 182.469C277.74 180.99 279.875 179.823 282.375 178.969C284.875 178.094 287.406 177.656 289.969 177.656C294.177 177.656 297.427 178.656 299.719 180.656C302.01 182.635 303.156 185.438 303.156 189.062ZM318.344 216.562L318.719 217.219C317.156 222.74 315.344 227.75 313.281 232.25H311.25C312.854 226.521 314 221.292 314.688 216.562H318.344ZM333.312 224L352.125 181.312H326.281V178.312H355.844V180.594L336.969 224H333.312ZM363.531 204.531C363.531 198.594 364.333 193.604 365.938 189.562C367.562 185.5 369.854 182.49 372.812 180.531C375.792 178.573 379.375 177.594 383.562 177.594C385.521 177.594 387.312 177.833 388.938 178.312V181.062C387.417 180.5 385.583 180.219 383.438 180.219C378.292 180.219 374.281 182.073 371.406 185.781C368.552 189.49 366.948 194.885 366.594 201.969H367C368.583 199.927 370.396 198.385 372.438 197.344C374.479 196.302 376.635 195.781 378.906 195.781C383.177 195.781 386.51 197 388.906 199.438C391.323 201.875 392.531 205.24 392.531 209.531C392.531 214.198 391.26 217.885 388.719 220.594C386.198 223.281 382.792 224.625 378.5 224.625C373.875 224.625 370.219 222.865 367.531 219.344C364.865 215.802 363.531 210.865 363.531 204.531ZM378.5 221.875C381.917 221.875 384.573 220.802 386.469 218.656C388.365 216.51 389.312 213.448 389.312 209.469C389.312 205.969 388.375 203.24 386.5 201.281C384.625 199.323 382.073 198.344 378.844 198.344C376.719 198.344 374.74 198.812 372.906 199.75C371.094 200.688 369.646 201.938 368.562 203.5C367.479 205.042 366.938 206.625 366.938 208.25C366.938 210.562 367.448 212.792 368.469 214.938C369.51 217.062 370.906 218.75 372.656 220C374.427 221.25 376.375 221.875 378.5 221.875ZM406.438 224L425.25 181.312H399.406V178.312H428.969V180.594L410.094 224H406.438ZM441.781 216.562L442.156 217.219C440.594 222.74 438.781 227.75 436.719 232.25H434.688C436.292 226.521 437.438 221.292 438.125 216.562H441.781ZM463.094 196.531C467.969 196.531 471.802 197.708 474.594 200.062C477.406 202.417 478.812 205.656 478.812 209.781C478.812 214.469 477.354 218.115 474.438 220.719C471.521 223.323 467.5 224.625 462.375 224.625C460.104 224.625 457.948 224.406 455.906 223.969C453.865 223.51 452.156 222.865 450.781 222.031V218.812C453.031 219.958 455.031 220.76 456.781 221.219C458.531 221.656 460.396 221.875 462.375 221.875C466.375 221.875 469.583 220.823 472 218.719C474.417 216.594 475.625 213.729 475.625 210.125C475.625 206.729 474.448 204.062 472.094 202.125C469.74 200.188 466.542 199.219 462.5 199.219C459.792 199.219 456.958 199.625 454 200.438L452.125 199.219L453.938 178.312H475.938V181.312H456.875L455.469 197.438C458.719 196.833 461.26 196.531 463.094 196.531ZM513.469 189.062C513.469 191.896 512.573 194.281 510.781 196.219C509.01 198.156 506.625 199.396 503.625 199.938V200.125C507.292 200.583 510.083 201.75 512 203.625C513.917 205.5 514.875 208.021 514.875 211.188C514.875 215.458 513.417 218.771 510.5 221.125C507.604 223.458 503.427 224.625 497.969 224.625C493.323 224.625 489.271 223.76 485.812 222.031V218.938C487.562 219.854 489.521 220.573 491.688 221.094C493.875 221.615 495.927 221.875 497.844 221.875C502.448 221.875 505.906 220.948 508.219 219.094C510.531 217.219 511.688 214.583 511.688 211.188C511.688 208.167 510.5 205.844 508.125 204.219C505.771 202.594 502.302 201.781 497.719 201.781H492.781V198.781H497.781C501.573 198.781 504.573 197.885 506.781 196.094C509.01 194.281 510.125 191.833 510.125 188.75C510.125 186.208 509.219 184.177 507.406 182.656C505.615 181.115 503.26 180.344 500.344 180.344C498.073 180.344 496 180.667 494.125 181.312C492.25 181.938 490.146 183.021 487.812 184.562L486.281 182.469C488.052 180.99 490.188 179.823 492.688 178.969C495.188 178.094 497.719 177.656 500.281 177.656C504.49 177.656 507.74 178.656 510.031 180.656C512.323 182.635 513.469 185.438 513.469 189.062ZM551.812 197.688C551.812 203.688 551.021 208.708 549.438 212.75C547.875 216.792 545.583 219.781 542.562 221.719C539.562 223.656 535.927 224.625 531.656 224.625C529.49 224.625 527.49 224.354 525.656 223.812V221.125C526.552 221.417 527.625 221.646 528.875 221.812C530.146 221.958 531.115 222.031 531.781 222.031C536.927 222.031 540.958 220.177 543.875 216.469C546.792 212.74 548.417 207.312 548.75 200.188H548.375C546.854 202.188 545.042 203.729 542.938 204.812C540.833 205.875 538.635 206.406 536.344 206.406C532.115 206.406 528.812 205.24 526.438 202.906C524.083 200.573 522.906 197.26 522.906 192.969C522.906 188.385 524.198 184.677 526.781 181.844C529.385 179.01 532.76 177.594 536.906 177.594C539.906 177.594 542.531 178.385 544.781 179.969C547.031 181.531 548.76 183.833 549.969 186.875C551.198 189.917 551.812 193.521 551.812 197.688ZM536.906 180.344C533.615 180.344 530.99 181.458 529.031 183.688C527.073 185.896 526.094 188.927 526.094 192.781C526.094 196.406 527 199.156 528.812 201.031C530.625 202.906 533.219 203.844 536.594 203.844C538.698 203.844 540.656 203.375 542.469 202.438C544.302 201.5 545.75 200.26 546.812 198.719C547.896 197.156 548.438 195.573 548.438 193.969C548.438 191.531 547.948 189.25 546.969 187.125C546.01 185 544.656 183.344 542.906 182.156C541.177 180.948 539.177 180.344 536.906 180.344ZM275.688 299H272.469L245.406 258.438H245.156C245.406 263.271 245.531 266.917 245.531 269.375V299H242.469V253.312H245.656L272.688 293.812H272.875C272.688 290.062 272.594 286.5 272.594 283.125V253.312H275.688V299ZM291.844 299H288.656V253.312H313.688V256.25H291.844V275.625H312.469V278.594H291.844V299ZM332.688 299H329.469V256.312H314.625V253.312H347.531V256.312H332.688V299ZM379.562 287.219C379.562 291.031 378.156 294.052 375.344 296.281C372.552 298.51 368.833 299.625 364.188 299.625C358.604 299.625 354.323 299.01 351.344 297.781V294.594C354.635 295.99 358.833 296.688 363.938 296.688C367.688 296.688 370.656 295.833 372.844 294.125C375.052 292.396 376.156 290.135 376.156 287.344C376.156 285.615 375.792 284.188 375.062 283.062C374.333 281.917 373.146 280.875 371.5 279.938C369.854 279 367.438 277.99 364.25 276.906C359.583 275.302 356.354 273.573 354.562 271.719C352.792 269.844 351.906 267.354 351.906 264.25C351.906 260.833 353.24 258.052 355.906 255.906C358.594 253.74 362.042 252.656 366.25 252.656C370.542 252.656 374.573 253.469 378.344 255.094L377.188 257.844C373.396 256.26 369.771 255.469 366.312 255.469C362.938 255.469 360.25 256.25 358.25 257.812C356.25 259.375 355.25 261.5 355.25 264.188C355.25 265.875 355.552 267.26 356.156 268.344C356.781 269.427 357.792 270.406 359.188 271.281C360.583 272.135 362.979 273.167 366.375 274.375C369.938 275.604 372.615 276.802 374.406 277.969C376.198 279.115 377.5 280.427 378.312 281.906C379.146 283.365 379.562 285.135 379.562 287.219ZM418.625 299.625C413.771 299.625 409.969 298.094 407.219 295.031C404.469 291.969 403.094 287.698 403.094 282.219C403.094 276.594 404.521 272.219 407.375 269.094C410.229 265.948 414.135 264.375 419.094 264.375C422.031 264.375 424.844 264.885 427.531 265.906L426.688 268.656C423.75 267.677 421.198 267.188 419.031 267.188C414.865 267.188 411.708 268.479 409.562 271.062C407.417 273.625 406.344 277.323 406.344 282.156C406.344 286.74 407.417 290.333 409.562 292.938C411.708 295.521 414.708 296.812 418.562 296.812C421.646 296.812 424.51 296.26 427.156 295.156V298.031C424.99 299.094 422.146 299.625 418.625 299.625ZM448.875 264.375C450.312 264.375 451.854 264.521 453.5 264.812L452.906 267.781C451.49 267.427 450.021 267.25 448.5 267.25C445.604 267.25 443.229 268.479 441.375 270.938C439.521 273.396 438.594 276.5 438.594 280.25V299H435.5V265.031H438.125L438.438 271.156H438.656C440.052 268.656 441.542 266.906 443.125 265.906C444.708 264.885 446.625 264.375 448.875 264.375ZM474.156 299.625C469.219 299.625 465.365 298.104 462.594 295.062C459.844 292.021 458.469 287.76 458.469 282.281C458.469 276.865 459.802 272.531 462.469 269.281C465.135 266.01 468.729 264.375 473.25 264.375C477.25 264.375 480.406 265.771 482.719 268.562C485.031 271.354 486.188 275.146 486.188 279.938V282.438H461.719C461.76 287.104 462.844 290.667 464.969 293.125C467.115 295.583 470.177 296.812 474.156 296.812C476.094 296.812 477.792 296.677 479.25 296.406C480.729 296.135 482.594 295.552 484.844 294.656V297.469C482.927 298.302 481.156 298.865 479.531 299.156C477.906 299.469 476.115 299.625 474.156 299.625ZM473.25 267.125C469.979 267.125 467.354 268.208 465.375 270.375C463.396 272.521 462.24 275.625 461.906 279.688H482.906C482.906 275.75 482.052 272.677 480.344 270.469C478.635 268.24 476.271 267.125 473.25 267.125ZM516.188 299L515.406 293.625H515.156C513.448 295.812 511.688 297.365 509.875 298.281C508.083 299.177 505.958 299.625 503.5 299.625C500.167 299.625 497.573 298.771 495.719 297.062C493.865 295.354 492.938 292.99 492.938 289.969C492.938 286.656 494.312 284.083 497.062 282.25C499.833 280.417 503.833 279.448 509.062 279.344L515.531 279.156V276.906C515.531 273.677 514.875 271.24 513.562 269.594C512.25 267.948 510.135 267.125 507.219 267.125C504.073 267.125 500.812 268 497.438 269.75L496.281 267.062C500.01 265.312 503.698 264.438 507.344 264.438C511.073 264.438 513.854 265.406 515.688 267.344C517.542 269.281 518.469 272.302 518.469 276.406V299H516.188ZM503.688 296.812C507.312 296.812 510.167 295.781 512.25 293.719C514.354 291.635 515.406 288.75 515.406 285.062V281.719L509.469 281.969C504.698 282.198 501.292 282.948 499.25 284.219C497.229 285.469 496.219 287.427 496.219 290.094C496.219 292.219 496.865 293.875 498.156 295.062C499.469 296.229 501.312 296.812 503.688 296.812ZM541.938 264.375C544.396 264.375 546.521 264.823 548.312 265.719C550.104 266.615 551.708 268.146 553.125 270.312H553.312C553.188 267.688 553.125 265.115 553.125 262.594V250.375H556.188V299H554.156L553.375 293.812H553.125C550.542 297.688 546.833 299.625 542 299.625C537.312 299.625 533.729 298.167 531.25 295.25C528.771 292.333 527.531 288.083 527.531 282.5C527.531 276.625 528.76 272.135 531.219 269.031C533.677 265.927 537.25 264.375 541.938 264.375ZM541.938 267.188C538.229 267.188 535.438 268.49 533.562 271.094C531.708 273.698 530.781 277.479 530.781 282.438C530.781 292.062 534.521 296.875 542 296.875C545.833 296.875 548.646 295.76 550.438 293.531C552.229 291.302 553.125 287.625 553.125 282.5V281.969C553.125 276.719 552.24 272.948 550.469 270.656C548.719 268.344 545.875 267.188 541.938 267.188ZM595.719 281.969C595.719 287.51 594.375 291.844 591.688 294.969C589 298.073 585.292 299.625 580.562 299.625C577.583 299.625 574.958 298.906 572.688 297.469C570.417 296.031 568.677 293.969 567.469 291.281C566.26 288.594 565.656 285.49 565.656 281.969C565.656 276.427 567 272.115 569.688 269.031C572.375 265.927 576.062 264.375 580.75 264.375C585.417 264.375 589.073 265.948 591.719 269.094C594.385 272.219 595.719 276.51 595.719 281.969ZM568.906 281.969C568.906 286.635 569.927 290.281 571.969 292.906C574.031 295.51 576.938 296.812 580.688 296.812C584.438 296.812 587.333 295.51 589.375 292.906C591.438 290.281 592.469 286.635 592.469 281.969C592.469 277.281 591.427 273.646 589.344 271.062C587.281 268.479 584.375 267.188 580.625 267.188C576.875 267.188 573.979 268.479 571.938 271.062C569.917 273.625 568.906 277.26 568.906 281.969ZM626.188 290.156C626.188 293.198 625.031 295.542 622.719 297.188C620.406 298.812 617.125 299.625 612.875 299.625C608.333 299.625 604.729 298.927 602.062 297.531V294.188C605.479 295.896 609.083 296.75 612.875 296.75C616.229 296.75 618.771 296.198 620.5 295.094C622.25 293.969 623.125 292.479 623.125 290.625C623.125 288.917 622.427 287.479 621.031 286.312C619.656 285.146 617.385 284 614.219 282.875C610.823 281.646 608.438 280.594 607.062 279.719C605.688 278.823 604.646 277.823 603.938 276.719C603.25 275.594 602.906 274.229 602.906 272.625C602.906 270.083 603.969 268.073 606.094 266.594C608.24 265.115 611.229 264.375 615.062 264.375C618.729 264.375 622.208 265.062 625.5 266.438L624.344 269.25C621.01 267.875 617.917 267.188 615.062 267.188C612.292 267.188 610.094 267.646 608.469 268.562C606.844 269.479 606.031 270.75 606.031 272.375C606.031 274.146 606.656 275.562 607.906 276.625C609.177 277.688 611.646 278.875 615.312 280.188C618.375 281.292 620.604 282.292 622 283.188C623.396 284.062 624.438 285.062 625.125 286.188C625.833 287.312 626.188 288.635 626.188 290.156Z" fill="white"/>
<path d="M106.288 285L137.68 285C133.504 281.256 131.344 272.904 131.344 253.32L134.944 241.944C161.296 280.968 157.696 283.56 155.824 285L193.696 285C178.288 275.064 177.424 272.76 141.712 219.768C149.2 196.296 162.304 188.952 170.368 199.896C177.424 209.688 174.832 223.224 168.64 225.816C177.424 225.816 186.928 220.632 188.944 207.672C190.528 198.456 187.216 187.368 177.856 184.2C159.28 178.008 147.328 191.688 131.344 249.864L131.344 199.32C131.344 185.208 137.68 184.632 137.68 184.632L106.288 184.632C106.288 184.632 112.768 185.208 112.768 199.32L112.768 270.312C112.768 281.976 106.288 285 106.288 285Z" fill="white"/>
<defs>
<linearGradient id="paint0_linear_213_315" x1="833" y1="-115.5" x2="2152" y2="862.5" gradientUnits="userSpaceOnUse">
<stop stop-color="#24292E"/>
<stop offset="0.982875" stop-color="#5C5C5C" stop-opacity="0.72"/>
</linearGradient>
</defs>
</svg>
