<svg width="36" height="36" viewBox="0 0 36 36" fill="none" xmlns="http://www.w3.org/2000/svg">
<path d="M16.7866 11.2179C17.1772 10.8274 17.8103 10.8274 18.2009 11.2179C18.5914 11.6084 18.5914 12.2416 18.2009 12.6321L13.833 17H24.5812C25.1335 17 25.5812 17.4477 25.5812 18C25.5812 18.5523 25.1335 19 24.5812 19H13.833L18.2009 23.3679C18.5914 23.7584 18.5914 24.3916 18.2009 24.7821C17.8103 25.1726 17.1772 25.1726 16.7866 24.7821L10.7116 18.7071C10.5241 18.5196 10.4187 18.2652 10.4187 18C10.4187 17.7348 10.5241 17.4804 10.7116 17.2929L16.7866 11.2179Z" fill="white"/>
<path fill-rule="evenodd" clip-rule="evenodd" d="M0 18C0 27.9411 8.05887 36 18 36C27.9411 36 36 27.9411 36 18C36 8.05887 27.9411 0 18 0C8.05887 0 0 8.05887 0 18ZM2 18C2 26.8366 9.16344 34 18 34C26.8366 34 34 26.8366 34 18C34 9.16344 26.8366 2 18 2C9.16344 2 2 9.16344 2 18Z" fill="white"/>
</svg>
