<svg width="36" height="36" viewBox="0 0 36 36" fill="none" xmlns="http://www.w3.org/2000/svg">
<path d="M19.2134 11.2179C18.8228 10.8274 18.1897 10.8274 17.7991 11.2179C17.4086 11.6084 17.4086 12.2416 17.7991 12.6321L22.167 17H11.4188C10.8665 17 10.4188 17.4477 10.4188 18C10.4188 18.5523 10.8665 19 11.4188 19H22.167L17.7991 23.3679C17.4086 23.7584 17.4086 24.3916 17.7991 24.7821C18.1897 25.1726 18.8228 25.1726 19.2134 24.7821L25.2884 18.7071C25.4759 18.5196 25.5813 18.2652 25.5813 18C25.5813 17.7348 25.4759 17.4804 25.2884 17.2929L19.2134 11.2179Z" fill="white"/>
<path fill-rule="evenodd" clip-rule="evenodd" d="M36 18C36 27.9411 27.9411 36 18 36C8.05887 36 0 27.9411 0 18C0 8.05887 8.05887 0 18 0C27.9411 0 36 8.05887 36 18ZM34 18C34 26.8366 26.8366 34 18 34C9.16344 34 2 26.8366 2 18C2 9.16344 9.16344 2 18 2C26.8366 2 34 9.16344 34 18Z" fill="white"/>
</svg>
