<svg width="30" height="36" viewBox="0 0 30 36" fill="none" xmlns="http://www.w3.org/2000/svg">
<path d="M0.096 36H10.56C9.168 34.752 8.448 31.968 8.448 25.44L9.648 21.648C18.432 34.656 17.232 35.52 16.608 36H29.232C24.096 32.688 23.808 31.92 11.904 14.256C14.4 6.432 18.768 3.984 21.456 7.632C23.808 10.896 22.944 15.408 20.88 16.272C23.808 16.272 26.976 14.544 27.648 10.224C28.176 7.152 27.072 3.456 23.952 2.4C17.76 0.335999 13.776 4.896 8.448 24.288V7.44C8.448 2.736 10.56 2.544 10.56 2.544H0.096C0.096 2.544 2.256 2.736 2.256 7.44V31.104C2.256 34.992 0.096 36 0.096 36Z" fill="white"/>
</svg>
