<svg width="14" height="16" viewBox="0 0 14 16" fill="none" xmlns="http://www.w3.org/2000/svg">
<path d="M2 5C2 2.23858 4.23858 0 7 0C9.7614 0 12 2.23858 12 5V7.94722C12 7.99658 12.0146 8.04483 12.042 8.0859L13.7451 10.6406C13.9113 10.8899 14 11.1828 14 11.4824C14 12.3206 13.3206 13 12.4824 13H1.51759C0.67945 13 0 12.3206 0 11.4824C0 11.1828 0.08868 10.8899 0.25488 10.6406L1.95801 8.0859C1.98539 8.04483 2 7.99658 2 7.94722V5Z" fill="white"/>
<path d="M6.99999 16C8.02007 16 8.86177 15.2363 8.98458 14.2495C9.00159 14.1125 8.88806 14 8.74999 14H5.24999C5.11192 14 4.99835 14.1125 5.0154 14.2495C5.13821 15.2363 5.97991 16 6.99999 16Z" fill="white" />
</svg>
