<svg width="17" height="16" viewBox="0 0 17 16" fill="none" xmlns="http://www.w3.org/2000/svg" >
<path d="M0 16V14C0 11.8 3.64106 10 8.09125 10C12.5414 10 16.1825 11.8 16.1825 14V16H0ZM4.04563 3.99999C4.04563 3.20887 4.2829 2.4355 4.72744 1.7777C5.17198 1.11991 5.80382 0.607217 6.54306 0.304467C7.2823 0.00171617 8.09574 -0.0774743 8.88052 0.0768666C9.66529 0.231208 10.3862 0.612153 10.9519 1.17156C11.5177 1.73097 11.903 2.44371 12.0591 3.21963C12.2152 3.99555 12.1351 4.79982 11.8289 5.53073C11.5227 6.26163 11.0042 6.88634 10.3389 7.32586C9.67358 7.76539 8.8914 8 8.09125 8C7.01829 8 5.98927 7.57857 5.23056 6.82843C4.47186 6.07828 4.04563 5.06086 4.04563 3.99999Z" fill="white"/>
</svg>
